<svg id="Capa_1" data-name="Capa 1" xmlns="http://www.w3.org/2000/svg" xmlns:xlink="http://www.w3.org/1999/xlink" viewBox="0 0 459.81 526.24"><defs><style>.cls-1,.cls-14,.cls-26{fill:none;}.cls-2{fill:#063;}.cls-3{fill:#9e9b1c;}.cls-4,.cls-54{fill:#fcd5bb;}.cls-5{fill:#e9c3aa;}.cls-6{fill:#f2ceb5;}.cls-21,.cls-43,.cls-53,.cls-56,.cls-57,.cls-58,.cls-59,.cls-7{fill:#1d1d1b;}.cls-19,.cls-28,.cls-8{fill:#fff;}.cls-9{fill:#432918;}.cls-10{fill:url(#Naranja_amarillo);}.cls-11{fill:url(#Naranja_amarillo-2);}.cls-12,.cls-42{fill:#3c3c3b;}.cls-12{opacity:0.67;}.cls-12,.cls-16,.cls-19,.cls-21,.cls-22,.cls-23,.cls-24,.cls-25,.cls-28,.cls-34,.cls-45,.cls-46,.cls-48,.cls-52{isolation:isolate;}.cls-13{fill:#dedc00;}.cls-14{stroke:#e61479;stroke-width:0.54px;}.cls-14,.cls-26,.cls-39{stroke-miterlimit:10;}.cls-15{fill:#1d71b8;}.cls-16,.cls-34,.cls-36,.cls-48{fill:#010101;}.cls-16{opacity:0.1;}.cls-17{fill:#ffd651;}.cls-18{clip-path:url(#clip-path);}.cls-19{opacity:0.5;}.cls-20{clip-path:url(#clip-path-2);}.cls-21{opacity:0.86;}.cls-22,.cls-23,.cls-24,.cls-25,.cls-27{fill:#95c11f;}.cls-23{opacity:0.91;}.cls-24{opacity:0.93;}.cls-25,.cls-56{opacity:0.18;}.cls-26{stroke:#95c11f;}.cls-28{opacity:0.57;}.cls-29,.cls-30,.cls-32,.cls-33{fill:#2d2e83;}.cls-29,.cls-57{opacity:0.19;}.cls-30,.cls-43{opacity:0.34;}.cls-31{fill:#29235c;opacity:0.28;}.cls-32{opacity:0.35;}.cls-33{opacity:0.41;}.cls-34{opacity:0.27;}.cls-35,.cls-48{opacity:0.2;}.cls-37{fill:#706f6f;}.cls-38{fill:#878787;}.cls-39,.cls-50{fill:#352f21;}.cls-39{stroke:#1d1d1b;stroke-width:4px;}.cls-40{fill:#fdfaee;}.cls-41{fill:#b9b7b0;}.cls-44{fill:#045c7e;}.cls-45{fill:#b54e19;}.cls-46{fill:#ea5b0c;}.cls-47,.cls-52{fill:#fcea10;}.cls-49{fill:#575756;}.cls-51{fill:#737068;}.cls-52{opacity:0.88;}.cls-53{opacity:0.24;}.cls-54{opacity:0.65;}.cls-55{fill:#d7b59e;}.cls-58{opacity:0.17;}.cls-59{opacity:0.25;}.cls-60{fill:#024f27;}.cls-61{fill:#d3ac92;opacity:0.42;}</style><linearGradient id="Naranja_amarillo" x1="373.55" y1="93.52" x2="389.62" y2="93.52" gradientUnits="userSpaceOnUse"><stop offset="0" stop-color="#ffef26"/><stop offset="0.02" stop-color="#ffea21"/><stop offset="0.1" stop-color="#fed70f"/><stop offset="0.19" stop-color="#fdcc04"/><stop offset="0.28" stop-color="#fdc800"/><stop offset="0.67" stop-color="#f18f34"/><stop offset="0.89" stop-color="#e95f32"/><stop offset="1" stop-color="#e3312d"/></linearGradient><linearGradient id="Naranja_amarillo-2" x1="397.15" y1="93.52" x2="413.21" y2="93.52" xlink:href="#Naranja_amarillo"/><clipPath id="clip-path" transform="translate(-191.3 -48.14)"><path class="cls-1" d="M377.88,97.4a3.91,3.91,0,0,1-3.08-1.11c-1.33-1.37-1.25-4.19-1.08-6V90c.17-2.22.75-2.22,1.33-2.22h9c2.16,0,2.91.42,3.16.94a2.89,2.89,0,0,1,.16,2.3c-1.08,4.11-2.41,6-8.64,6.42Z"/></clipPath><clipPath id="clip-path-2" transform="translate(-191.3 -48.14)"><path class="cls-1" d="M407.05,97.4h-.58c-6.23-.43-7.65-2.23-8.64-6.42a2.38,2.38,0,0,1,.16-2.22c.34-.43,1.25-.94,3.33-.94H410c.42,0,1.25,0,1.33,2.22v.35c.17,1.88.34,4.53-1.08,6A4,4,0,0,1,407.05,97.4Z"/></clipPath></defs><title>bici4</title><g id="MANO_IZQ" data-name="MANO IZQ"><path class="cls-2" d="M523.71,274.66C531,287.49,534.52,293,534.52,293s10.8,4.87,14.88,6.92c5.9,3,8.06,8.9,2,14.88-8.06,7.87-6.81,10.35-20.11,4.19-13.22-6-11.39-13.59-8.65-15.47l-15-22Z" transform="translate(-191.3 -48.14)"/></g><g id="CICLISTA"><path class="cls-3" d="M377.29,133.06c.26-.15.6-.3.8-.17.5.32,0,2.15-.29,2.15s-.32-.62-.4-1A4.31,4.31,0,0,1,377.29,133.06Z" transform="translate(-191.3 -48.14)"/><g id="OREJA_IZQ" data-name="OREJA IZQ"><ellipse class="cls-4" cx="225.06" cy="49" rx="3.16" ry="8.64"/><ellipse class="cls-5" cx="417.16" cy="97.99" rx="4.86" ry="1.58" transform="translate(84.9 454.52) rotate(-84.02)"/></g><g id="OREJA_DERCH" data-name="OREJA DERCH"><ellipse class="cls-4" cx="179.63" cy="49" rx="3.16" ry="8.64"/><ellipse class="cls-5" cx="370.93" cy="97.14" rx="1.58" ry="4.86" transform="translate(-195.21 -31.74) rotate(-2.52)"/></g><path class="cls-6" d="M364.91,185.39c-27.1-6.38,12.63-43.92,12.63-43.92l.25-22.41,31.95.55q-.18,10.9-.37,21.8c18.15,14.65,26.41,30.33,21.92,38.27-1,1.68-3.1,4.13-8.69,5.54Z" transform="translate(-191.3 -48.14)"/><path class="cls-5" d="M385.52,130.93a13.55,13.55,0,0,1-5.3-3.41,12.43,12.43,0,0,1-2.68-4.73c0-2.22.17-4.36.17-10.94H410c0,5.81-.33,8-.41,13.34a23,23,0,0,1-7.37,5.17C401.44,130.69,393.52,134,385.52,130.93Z" transform="translate(-191.3 -48.14)"/><path class="cls-4" d="M416.24,80c.14,1.16,2,17.68-.58,27.87a27.65,27.65,0,0,1-3.66,8.74,28.21,28.21,0,0,1-4.23,5c-3.5,3.31-8,7.56-14.23,7.65-6.68.1-11.6-4.6-14-6.91a26,26,0,0,1-4.36-5.49,27.7,27.7,0,0,1-3.23-9c-2-10.35-.75-26-.59-27.87Z" transform="translate(-191.3 -48.14)"/><path class="cls-7" d="M370.07,91.26a60.23,60.23,0,0,1,.45-8.57H368.9a63.6,63.6,0,0,0-.47,7.25A4.46,4.46,0,0,1,370.07,91.26Z" transform="translate(-191.3 -48.14)"/><path class="cls-7" d="M419.48,90.68c.12-2.43.22-5.19.23-8.26l-1.91.27c-.07,3.14-.19,6-.35,8.69A4.8,4.8,0,0,1,419.48,90.68Z" transform="translate(-191.3 -48.14)"/><path class="cls-7" d="M417.32,105.37a4.73,4.73,0,0,1-.52.32,6.83,6.83,0,0,1-.7.32,25.45,25.45,0,0,1-1.57,5.6,34.67,34.67,0,0,1-4.79,8c-2,2.34-7.83,9.33-16,9.32-10.13,0-16.6-10.68-18.26-13.43a31.38,31.38,0,0,1-3.89-9.89,1.21,1.21,0,0,1-.62.17,1.26,1.26,0,0,1-.69-.21,30.78,30.78,0,0,0,3.68,10.92c1.25,2.18,8.18,14.38,19.93,14.5,13.43.15,20.71-15.59,21.15-16.56A28.35,28.35,0,0,0,417.32,105.37Z" transform="translate(-191.3 -48.14)"/><path class="cls-5" d="M397.39,118.57a22.4,22.4,0,0,1-4.23,0,24.65,24.65,0,0,1-5.18-1,10.58,10.58,0,0,0,3.83,4,5.9,5.9,0,0,0,3.4,1,5.8,5.8,0,0,0,2.55-.88,14.7,14.7,0,0,0,4.65-4.23A21.43,21.43,0,0,1,397.39,118.57Z" transform="translate(-191.3 -48.14)"/><path class="cls-8" d="M397.17,118.44a25.17,25.17,0,0,1-4,0,27.48,27.48,0,0,1-5.07-.85,2.67,2.67,0,0,0,.42.83,2.5,2.5,0,0,0,.61.59c.79.17,1.65.33,2.56.45a31.22,31.22,0,0,0,3.4.29l2.3-.19c.79,0,1.57-.19,2.36-.26a2.57,2.57,0,0,0,1.08-.27,3.37,3.37,0,0,0,.92-.77,6.88,6.88,0,0,0,.67-.86A24.18,24.18,0,0,1,397.17,118.44Z" transform="translate(-191.3 -48.14)"/><path class="cls-9" d="M414.83,92.2a34.07,34.07,0,0,0,.31,4.56c0-.05.06-.09.08-.14a6.58,6.58,0,0,1,.06-1,5,5,0,0,1,2.15-4.24s0,0,0-.06c.1-1.33.28-3.16.58-5.8a24.73,24.73,0,0,0-.73-5.52c-3.31-12.78-12-17.3-12-17.3-5.76-3-11.33-2.25-15.68-1.67-4.09.55-9.54,1.27-14,5.69a19.59,19.59,0,0,0-5.27,10,32.29,32.29,0,0,0-.83,5.27,36.6,36.6,0,0,0,.47,9.11,5.21,5.21,0,0,1,1.12,2.59c.11,0,.34-.3.82-1.78,1.67-5.21.38-7.93,1.94-9.22.87-.73,2.27-.49,5.08,0,3.84.66,4.84,2,6.94,1.38,1.42-.41,1.19-1.08,3.19-1.94.65-.29,3.92-1.7,5.63-.38,1.43,1.11.84,3.76,1.51,3.85s1-2.08,2.15-2.23c.87-.11,1.17,1,2.22,1s1.3-1,2.64-1.65c.89-.4,1.2-.12,3.93,0,2.58.11,4.69.18,5.08-.7a1,1,0,0,0-.05-.83A26.75,26.75,0,0,1,414.83,92.2Z" transform="translate(-191.3 -48.14)"/><path class="cls-9" d="M314,22.62" transform="translate(-191.3 -48.14)"/><path class="cls-7" d="M393.42,90c1.08,0,1.5.77,2.91,4.19,1.33,3.25,4.41,7.7,11.22,7.7a6.31,6.31,0,0,0,4.06-1.07c2.57-1.93,3.27-6.61,4.22-8.4.36-.67.74-1.31.74-1.31l.41-.67.61-.92c.15-1.35.29-2.69.43-4q-12.34,0-24.77.07-12,0-24,0v4.1c.75,0,1.33.6,1.66,3.17s1.25,9.06,8.07,9.06a11.29,11.29,0,0,0,11.22-7.7C391.84,91,392.34,90,393.42,90Z" transform="translate(-191.3 -48.14)"/><path class="cls-10" d="M376.05,87.56c-1.08,0-2.25.43-2.41,3.25-.17,3-.75,9.07,6.06,8.64s8.48-2.65,9.73-7.18c.92-3.94-1.66-4.71-4.41-4.71Z" transform="translate(-191.3 -48.14)"/><path class="cls-11" d="M410.71,87.56c1.08,0,2.25.43,2.41,3.25.17,3,.75,9.07-6.07,8.64s-8.47-2.65-9.72-7.18c-.92-3.94,1.83-4.71,4.57-4.71Z" transform="translate(-191.3 -48.14)"/><path class="cls-2" d="M376.9,141.49c-6.41,9.59-12.9,19.82-19.36,30.71q-9.07,15.3-16.66,29.78a345,345,0,0,1,7.49,43.07,345.49,345.49,0,0,1,1.32,60.05c6.41-.42,86,0,86,0a327.46,327.46,0,0,1,.86-61.49c1.75-15.84,6.12-44.11,6.12-44.11q-16.19-29-32.39-58.06a10.66,10.66,0,0,1-1.32,3.85c-3.91,6.68-14.25,6.29-15.25,6.24C383.71,151,377.78,142.76,376.9,141.49Z" transform="translate(-191.3 -48.14)"/><path class="cls-12" d="M377,141.36l-33.75,62.12c4.15,4.3,23.12,24.89,22.78,56.32a79.9,79.9,0,0,1-15,45.3h86a81.42,81.42,0,0,1-16.26-39.55c-4.26-35.87,18.05-61.68,21.95-66.05l-32.58-57a7.55,7.55,0,0,1-.62,3.47c-2.54,5.65-12,6-15.13,6.07-3.77.14-13.25.46-16.39-5.34A9.16,9.16,0,0,1,377,141.36Z" transform="translate(-191.3 -48.14)"/><rect class="cls-13" x="200.71" y="103.13" width="2.58" height="151.78"/><path class="cls-14" d="M449.37,190.09" transform="translate(-191.3 -48.14)"/><path class="cls-14" d="M335.73,190.09" transform="translate(-191.3 -48.14)"/><path class="cls-4" d="M435.65,305.1s.75,40.19,2.75,66.79c2.16,29-6.24,29-6.07,46,.16,25.83-9.4,79.95-9.4,125.79-3.16,7.87-14.79,1.88-14.79,1.88s-2.75-53-2.75-77.9c0-44.64-7.9-36.34-7.9-107.49-2.41-.6-4.57-1.28-9.89,0,0,71.23-7.9,62.94-7.9,107.49,0,24.71-2.74,77.9-2.74,77.9s-11.55,5.81-14.8-1.88c0-41.9-9.56-100-9.39-125.79.17-17.19-8.4-17-6.07-46,2-26.6,3.16-66.79,3.16-66.79Z" transform="translate(-191.3 -48.14)"/><path class="cls-15" d="M436.94,305.1a56,56,0,0,1,1.94,6.65,61.36,61.36,0,0,1,.94,20.27c-1.65,17.75-2.15,31.14-1.42,39.87,0,.55.31,3.73.35,8a70.37,70.37,0,0,1-.54,10.09c-.24,1.8-.48,3.12-.74,4.36-1.58,7.31-3,10.66-4,15.76a51.29,51.29,0,0,0-1.13,7.83c-.12,2-.08,3.51-.06,4.32.1,4.16-.1,7.55-.45,13.55a174.79,174.79,0,0,1-2.06,18,26.11,26.11,0,0,0-9.53-3.17,28.59,28.59,0,0,0-6.9,0c-5.18.65-6.75,2.35-8.39,1.48-2.56-1.37-1.91-7.19-1.72-9.13.91-9.69-2.36-19.33-3.2-29-1.47-16.94-1.37-14.22-1.69-18.92-.59-8.46-1.13-20.31-.84-34.79a26.52,26.52,0,0,0-3.53-.42,27.11,27.11,0,0,0-6.36.42c-.14,31.88-1.34,46.5-2.53,53.81-1,6.33-1.9,12.69-2.89,19-1.12,7.22-1.28,8-1.36,10.14-.24,6.69.95,9.37-.78,10.87-1.92,1.66-4.42-.76-10.85-1.23-8.23-.61-12.37,2.76-14.51.4-1.16-1.28-.38-2.76-.26-7.83.11-4.23-.39-5.28-1-11.56-.78-8.28-.27-10.24-.68-15.9-.79-10.88-2.91-13-5.21-23.62-.25-1.16-.45-2.24-.63-3.46a65.28,65.28,0,0,1-.58-6.81c0-.26,0-.91,0-1.73a81,81,0,0,1,.39-10.38c.13-1.49,1.45-35.26.58-47.65a36.62,36.62,0,0,1,.71-12.55s.09-.36,1.87-6.59Z" transform="translate(-191.3 -48.14)"/><path class="cls-16" d="M411.21,514c.17-23.78-.33-29.08-.33-48.23,0-26.33-3.49-36.4-5-62.42,0,0-1.2-22.75-.27-44.58,0-.9.08-1.8.08-1.8,0-.53,0-.92,0-1,.07-1.35.51-4.6.69-5.94a11.29,11.29,0,0,1-3.52,3.13,14.87,14.87,0,0,1-4.88,1.49,39.68,39.68,0,0,1-5.53.62c-5.2.25-7.66-.47-8.38-.7a8.72,8.72,0,0,1-2.19-1,8.13,8.13,0,0,1-2.66-3c0,1.67,0,4.23-.22,7.42-.05,1-.1,1.65-.11,1.82-.56,9-.22,20.4-.22,20.4.23,7.83.4,15.67.4,23.51,0,18.13-5.9,34.46-5.32,52.42.58,18.13,1.5,86.37-4.57,91.67a22.39,22.39,0,0,0,7.65-2s2.74-53,2.74-77.9c0-44.64,7.9-36.35,7.9-107.49,5.49-1.28,7.48-.6,9.89,0,0,71.23,7.9,62.94,7.9,107.49,0,24.71,2.74,77.9,2.74,77.9a21.79,21.79,0,0,0,6.82,2C411.21,541.37,411.21,522.13,411.21,514Z" transform="translate(-191.3 -48.14)"/><path class="cls-17" d="M403,535.47" transform="translate(-191.3 -48.14)"/><g class="cls-18"><path class="cls-19" d="M379.78,68.85,369.57,90.71A5.06,5.06,0,0,1,371.09,94a5.76,5.76,0,0,1,.22,3.05,4.59,4.59,0,0,1,3.31,3.44L387.57,72.7Z" transform="translate(-191.3 -48.14)"/><polygon class="cls-19" points="184.59 61.76 181.44 60.21 195.33 30.45 198.47 32.01 184.59 61.76"/></g><g class="cls-20"><polygon class="cls-19" points="206.62 54.24 198.83 50.39 212.71 20.64 220.51 24.48 206.62 54.24"/><polygon class="cls-19" points="208.79 61.67 205.64 60.12 219.53 30.36 222.68 31.92 208.79 61.67"/></g><path class="cls-7" d="M414,56.61a27,27,0,0,0-20.11-8.47c-7.73,0-14.8,2.83-19.62,8.13-4.24,4.53-7,10.6-8.07,18.64.34,1.88.75,4.1,1.08,6.07a1.83,1.83,0,0,0,1.83,1.71h49.88c.92,0,1.33-.43,1.66-1.54a60.94,60.94,0,0,0,1.25-6.24C420.94,67,418.19,61.23,414,56.61Z" transform="translate(-191.3 -48.14)"/><path class="cls-21" d="M366,74.91c.33,1.88.58,4.1,1.08,6.07.33.94,1.08,1.71,1.83,1.71h49.88A2.08,2.08,0,0,0,420.6,81a53.71,53.71,0,0,0,1.25-6.07Z" transform="translate(-191.3 -48.14)"/><path class="cls-22" d="M394,71a2.76,2.76,0,0,1-2.74-3.17l1.33-16.76c0-.43.58-.77,1.33-.77s1.33.34,1.33.77l1.33,16.76A2.64,2.64,0,0,1,394,71Z" transform="translate(-191.3 -48.14)"/><path class="cls-23" d="M388.85,53.1s-.33.17-.75.35-.42.34-.75.42a6.13,6.13,0,0,1-1.08.6,22.29,22.29,0,0,0-2.41,2.05,17.25,17.25,0,0,1-1.25,1.37,13.16,13.16,0,0,0-1.08,1.54c-.33.43-.58,1.11-.91,1.54a17,17,0,0,0-.75,1.71,7.07,7.07,0,0,0-.42,1.54c-.16.43-.16.94-.33,1.37a3.32,3.32,0,0,0-.16,1.28v1.88a2.77,2.77,0,0,1-2.17,2.82,2.37,2.37,0,0,1-2.24-2.48v-.34a7.36,7.36,0,0,1,.17-1.28,4.84,4.84,0,0,1,.16-1.37c.17-.43.17-1.11.34-1.71a15,15,0,0,1,.58-1.88,19.31,19.31,0,0,1,.91-2A11.57,11.57,0,0,1,378,58.58a13.2,13.2,0,0,1,1.33-1.71,6.1,6.1,0,0,1,1.5-1.54c.41-.43,1.08-.94,1.49-1.37a31.62,31.62,0,0,1,2.91-1.88c.42-.17.92-.43,1.25-.6a3.1,3.1,0,0,1,1.08-.34,2.17,2.17,0,0,1,.75-.17,1,1,0,0,1,1.24.77,1.38,1.38,0,0,1-.66,1.36Z" transform="translate(-191.3 -48.14)"/><path class="cls-24" d="M399.91,51a3.61,3.61,0,0,1,.91.17,3.79,3.79,0,0,1,1.08.34,13.73,13.73,0,0,1,1.25.6A13.89,13.89,0,0,1,406.06,54c.41.43,1.08.94,1.49,1.37l1.5,1.54c.42.59.91,1.11,1.33,1.71s.75,1.28,1.25,1.88c.33.6.58,1.28.91,1.88a8,8,0,0,1,.58,1.88,11.84,11.84,0,0,1,.42,1.71,3.8,3.8,0,0,1,.17,1.37,7,7,0,0,1,.16,1.28,2.68,2.68,0,0,1-2,3c-1.25.17-2.25-.77-2.41-2.3v-2.4a3.78,3.78,0,0,0-.17-1.28,4.28,4.28,0,0,0-.33-1.37,9.8,9.8,0,0,1-.42-1.54c-.33-.43-.41-1.11-.75-1.71a12.3,12.3,0,0,0-.91-1.54c-.33-.43-.75-1.11-1.08-1.54s-.75-.94-1.25-1.37c-.75-.77-1.66-1.54-2.24-2.05-.34-.17-.75-.43-1.08-.6s-.42-.34-.75-.42-.75-.35-.75-.35a1.16,1.16,0,0,1-.58-1.36c-.17-.69.33-1,.75-.77Z" transform="translate(-191.3 -48.14)"/><path class="cls-25" d="M366.07,74.91c.33,1.88.58,4.1,1.08,6.07.33.94,1.08,1.71,1.83,1.71h49.88A2.08,2.08,0,0,0,420.69,81a58.5,58.5,0,0,0,1.25-6.07Z" transform="translate(-191.3 -48.14)"/><line class="cls-26" x1="174.85" y1="26.76" x2="230.55" y2="26.76"/><path class="cls-4" d="M377.38,141.27s-22.86,5.81-31.84,8.29a32,32,0,0,0-9.09,4c-6.83,4.54-10.8,11.32-14,20.43-4.09,11.51-4.66,20.1-5.88,33.06-1,10.95-1.78,17.24-2.37,21.59-.36,2.65-.89,5.56-1.38,9.93-.6,5.34-.85,9.69-1,13.74-.84,20.16-.08,40.09-.08,40.09.22,5.79.61,13.6,1.34,22.87l17.65-.16c1.24-23.58,1.37-36.77,1-44.51a64.93,64.93,0,0,1,.77-14.17c.94-5.7,1.82-6.16,3.35-12.57,1.77-7.41,1.37-10,3.16-24.33.65-5.16,1.26-9.3,1.63-11.77Z" transform="translate(-191.3 -48.14)"/><path class="cls-27" d="M377.38,141.27s-22.86,5.81-31.84,8.29a32,32,0,0,0-9.09,4c-6.83,4.54-10.8,11.32-14,20.43-4.09,11.51-4.66,20.1-5.88,33.06-.66,7-3.83,12.11-1.45,14.15,2,1.7,4.56-.93,12.62-1,5.87-.07,10,1.4,11.28-.63.19-.31.1-.35.55-3.94.17-1.38.31-2.51.53-3.83a21,21,0,0,1,1.18-5.14c.57-1.24.87-1.29,2-3.17a30.1,30.1,0,0,0,1.84-3.7l4.71-8.52L356,179.93,363.7,166Z" transform="translate(-191.3 -48.14)"/><path class="cls-4" d="M442.8,199.41c-1.5-2.22-5.65-9.4-5.65-9.4l-27.68-48.83c4.24,1.54,26.35,6.24,32.83,8.29a22.75,22.75,0,0,1,6,2.69c10.17,6.65,15.61,19.27,16.69,22.2,13.86,37.48,40.73,68.77,60.73,103.38l4.61,8a53.61,53.61,0,0,0-13.47,6.49c-.48.32-1,.65-1.41,1-.86-1.2-1.86-2.62-2.94-4.21-.39-.56-1.47-2.14-2.82-4.22s-3.2-5-5.3-8.54l-26.43-41C478,235.33,457.76,221.05,442.8,199.41Z" transform="translate(-191.3 -48.14)"/><path class="cls-27" d="M442.8,199.41c-.06-.11-.46-.81-1.08-1.76-.37-.57-.39-.53-2.31-3.77L437.15,190l-27.68-48.83c4.24,1.54,26.35,6.24,32.83,8.29a27.14,27.14,0,0,1,6,2.69c5.7,3.44,9,8.35,11.45,12,.51.77,1.49,2.69,3.24,5.59,1,1.6.83,1.34,1.39,2.27,2.42,4.09,5,9.37,5.6,10.38,0,0,.16.26.34.58l.45.76.42.7c.26.43,1.41,3.46,4.09,10.94l-6.41,3.16-8.6,3.87-7.9,3.94-3.25,2.2C444.63,202.2,443.15,200,442.8,199.41Z" transform="translate(-191.3 -48.14)"/><path class="cls-28" d="M377,142q-9.21,16.69-18.39,33.42-7.69,14-15.38,28.1a53.14,53.14,0,0,0,98.5-5.83q-15.84-27.6-31.67-55.19a8.06,8.06,0,0,1-1.09,4.43c-1.35,2.21-3.55,3-5.87,3.84a27.17,27.17,0,0,1-9.75,1.39c-4,0-6.8,0-10.12-1.44-1.8-.8-5.09-2.26-6.07-5.49A6.9,6.9,0,0,1,377,142Z" transform="translate(-191.3 -48.14)"/><path class="cls-13" d="M377.29,133.06l-.41,9.4s-1.83,9.66,16.46,9.66c-.92-5.64-1.5-11.11-1.5-11.11S377.29,140.32,377.29,133.06Z" transform="translate(-191.3 -48.14)"/><path class="cls-13" d="M409.63,133.06l.42,9.4s1.83,9.66-16.46,9.66c.75-4.7,1.49-11.11,1.49-11.11S407.8,140.32,409.63,133.06Z" transform="translate(-191.3 -48.14)"/></g><path class="cls-29" d="M402.7,442.71a4.17,4.17,0,0,0,.46.8c.77,1,9.54-.41,14.6-.39,7.14,0,12.05,2.93,13.35.93a1.77,1.77,0,0,0,.18-1.66c-.57-1-2.79-.8-3.84-.71-4.83.39-3.4-.82-12.61-.8-7.41,0-6.31.8-9.14.39-.39-.06-3-.45-3.27.28A1.93,1.93,0,0,0,402.7,442.71Z" transform="translate(-191.3 -48.14)"/><path class="cls-29" d="M354.5,442.45a4.82,4.82,0,0,0,.43.8c.72,1,8.86-.41,13.56-.39,6.64,0,11.19,2.93,12.4.93a1.85,1.85,0,0,0,.16-1.66c-.52-1-2.59-.8-3.56-.72-4.49.4-3.16-.81-11.71-.79-6.88,0-5.86.79-8.49.38-.36-.05-2.77-.44-3,.28A2.09,2.09,0,0,0,354.5,442.45Z" transform="translate(-191.3 -48.14)"/><path class="cls-15" d="M377,543.94c.82-.14,2.94,4.72,3.07,10.44.05,2,.14,5.89-1.72,6.74-1.32.61-2.55-.77-4,0-1.13.61-.85,1.76-2.16,3.18a7.18,7.18,0,0,1-3.16,1.85c-2.88,1-4.29.11-9.16,0-4.67-.13-5.34.65-7-.3-2.83-1.63-3.32-5.36-3.39-5.91a9.41,9.41,0,0,1,3.28-8.46c1.31-1,1.92-.71,2.76-1.79,1.38-1.78.32-3.3,1.52-5.74a7.45,7.45,0,0,1,3.2-3.26,7.79,7.79,0,0,1,5.95-.28,10.36,10.36,0,0,1,3.57,2.49c1.94,1.78,2.29,2.9,3.76,3.16a3.28,3.28,0,0,0,2.45-.51C376.84,544.87,376.7,544,377,543.94Z" transform="translate(-191.3 -48.14)"/><path class="cls-30" d="M380.13,555.84c.82.44.05,4.87-1.74,5.28-1.08.25-1.89-1.14-3.17-.79-.84.22-1.24,1-1.63,1.63h0c-.67,2.69-4.32,3.93-5.1,4.18-2.49.78-3-.08-7.79-.13-5-.06-5.93.87-7.78-.17-2.8-1.58-3.9-5.55-3.39-5.91.24-.18.78.5,1.79,1.06,2.21,1.22,4.19.52,7,.26,6.14-.57,7.34,1.73,10.83.17A9.71,9.71,0,0,0,373,559c.78-.91,1.18-1.85,2.24-2.12.78-.19,1,.21,2,.14C379,556.9,379.64,555.57,380.13,555.84Z" transform="translate(-191.3 -48.14)"/><path class="cls-31" d="M355.08,550.48c.13.38,2.07-.25,4.78-.28a20.5,20.5,0,0,1,7.61,1.41c2.12.83,3.4,1.79,3.55,1.58s-.91-1.45-2.27-2.32c-.54-.35-2.08-1.25-6.56-1.58a39.1,39.1,0,0,0-5.65,0C355.78,549.72,355,550.22,355.08,550.48Z" transform="translate(-191.3 -48.14)"/><path class="cls-15" d="M408,543.87c-2.6.09-5.88,13.4-1.94,16.08.32.22.25.07,4,.86s3.9,1,5.57,1.15c2.38.28,2.5,0,3.49.4,1.86.79,2.15,1.94,3.53,2.94,1.81,1.31,3,.41,8.83.48,5.36.06,6.37.85,8.47-.23a8.3,8.3,0,0,0,3.75-4.19,9,9,0,0,0-2-9.4c-2.46-2.45-6-2.69-7-2.75-2.71-.18-3.69.7-4.88-.13-1.77-1.23-.37-3.7-2.15-6.26a7.92,7.92,0,0,0-7.22-3,10,10,0,0,0-4.78,2.37c-2.73,2-3.3,3.89-4.79,3.8S409,543.83,408,543.87Z" transform="translate(-191.3 -48.14)"/><path class="cls-32" d="M404.23,555.79c.09,1.44.45,3.28,1.8,4.16,1,.64,2,.46,3.4.51a16.49,16.49,0,0,1,6.19,1.5l3.49.4c.53.32,1.37.83,2.34,1.53a14,14,0,0,0,2.64,1.85,5.16,5.16,0,0,0,3.7-.13l6.16.47,4.88-.1,2.69-1.82c.35-.4.71-.84,1.06-1.32a18.83,18.83,0,0,0,1.48-2.42l-3.46,1-8.32,0a36.74,36.74,0,0,1-5.55.23,39.18,39.18,0,0,1-4.93-.5,3.34,3.34,0,0,1-3.52-2.94,40.67,40.67,0,0,1-4.64-.06,37.61,37.61,0,0,1-6.85-1.17Z" transform="translate(-191.3 -48.14)"/><path class="cls-33" d="M431.21,549.7a16.94,16.94,0,0,0-7.12,1.38c-1.95.86-3.46,2-3.57,1.85a6.84,6.84,0,0,1,2.59-2.25,10.41,10.41,0,0,1,5.76-1.26Z" transform="translate(-191.3 -48.14)"/><g id="BICI_P"><path class="cls-34" d="M548.46,301.94c6.24,2.05,8.23,9.41,4.08,13.34-8.23,7.7-6.82,10.35-20.12,4.19-13.22-6-11.39-13.6-8.65-15.48l6.82,2.83C530.84,306.82,535.58,297.84,548.46,301.94Z" transform="translate(-191.3 -48.14)"/><g class="cls-35"><polygon class="cls-36" points="360.63 433.94 318.56 371.52 320.14 370.57 355.31 422.82 327.29 364.93 328.79 364.16 362.13 433 360.63 433.94"/><polygon class="cls-36" points="365.62 424.62 296.37 405.29 296.87 403.58 356.31 420.17 301.44 393.92 302.02 392.38 366.2 422.99 365.62 424.62"/><polygon class="cls-36" points="292.88 446.68 292.71 444.97 352.4 438.04 292.88 435.22 292.88 433.51 363.45 436.76 363.45 438.64 292.88 446.68"/><polygon class="cls-36" points="311.33 480.8 310.08 479.52 352.07 435.74 305.35 472.59 304.26 471.22 360.71 426.5 361.96 427.7 311.33 480.8"/><polygon class="cls-36" points="344 504.74 342.51 503.97 367.61 450.53 333.78 499.53 332.28 498.41 372.18 440.87 373.68 441.63 344 504.74"/><polygon class="cls-36" points="380.25 509.27 364.12 450.27 370.02 508.93 368.36 509.1 361.38 440.1 363.04 439.75 381.91 508.76 380.25 509.27"/><polygon class="cls-36" points="408.1 498.33 377.17 432.06 378.67 431.29 417.49 492 416.16 492.94 384.32 443.17 409.59 497.64 408.1 498.33"/><polygon class="cls-36" points="435.03 470.88 375.34 440.87 375.93 439.15 440.77 459.51 440.19 461.22 385.82 444.12 435.78 469.34 435.03 470.88"/><polygon class="cls-36" points="377.17 429.75 352.07 352.62 353.73 351.93 375.18 418.03 363.79 350.57 365.45 350.22 378.83 429.32 377.17 429.75"/><polygon class="cls-36" points="362.87 426.58 361.38 425.64 396.62 354.76 398.2 355.53 368.36 415.47 406.27 360.57 407.6 361.68 362.87 426.58"/><polygon class="cls-36" points="376.26 437.44 375.01 435.99 428.8 379.21 429.96 380.41 384.15 428.98 435.28 389.22 436.19 390.58 376.26 437.44"/><polygon class="cls-36" points="448.25 431.12 371.52 425.56 371.52 423.68 448.25 417.52 448.42 419.4 383.07 424.62 448.42 429.41 448.25 431.12"/></g><path class="cls-37" d="M560.57,395.12c-46.38,0-84,38.65-84,86.36s37.58,86.37,84,86.37,84-38.65,84-86.37S606.8,395.12,560.57,395.12Zm0,160.67c-40,0-72.4-33.35-72.4-74.48s32.42-74.48,72.4-74.48S633,440.18,633,481.31,600.39,555.79,560.57,555.79Z" transform="translate(-191.3 -48.14)"/><g class="cls-35"><polygon class="cls-36" points="81.97 433.94 39.99 371.52 41.4 370.57 76.57 422.82 48.55 364.93 50.05 364.16 83.39 433 81.97 433.94"/><polygon class="cls-36" points="86.88 424.62 17.63 405.29 18.13 403.58 77.73 420.17 22.7 393.92 23.45 392.38 87.46 422.99 86.88 424.62"/><polygon class="cls-36" points="14.3 446.68 14.14 444.97 73.66 438.04 14.14 435.22 14.14 433.51 84.72 436.76 84.72 438.64 14.3 446.68"/><polygon class="cls-36" points="32.76 480.8 31.51 479.52 73.33 435.74 26.61 472.59 25.53 471.22 82.14 426.5 83.22 427.7 32.76 480.8"/><polygon class="cls-36" points="65.26 504.74 63.77 503.97 88.87 450.53 55.12 499.53 53.71 498.41 93.44 440.87 94.94 441.63 65.26 504.74"/><polygon class="cls-36" points="101.51 509.27 85.38 450.27 91.28 508.93 89.62 509.1 82.64 440.1 84.3 439.75 103.17 508.76 101.51 509.27"/><polygon class="cls-36" points="129.36 498.33 98.6 432.06 99.93 431.29 138.92 492 137.42 492.94 105.58 443.17 130.85 497.64 129.36 498.33"/><polygon class="cls-36" points="156.29 470.88 96.6 440.87 97.27 439.15 162.03 459.51 161.61 461.22 107.08 444.12 157.04 469.34 156.29 470.88"/><polygon class="cls-36" points="98.43 429.75 73.49 352.62 74.99 351.93 96.44 418.03 85.05 350.57 86.71 350.22 100.09 429.32 98.43 429.75"/><polygon class="cls-36" points="84.13 426.58 82.8 425.64 117.89 354.76 119.47 355.53 89.62 415.47 127.69 360.57 129.03 361.68 84.13 426.58"/><polygon class="cls-36" points="97.52 437.44 96.44 435.99 150.06 379.21 151.39 380.41 105.58 428.98 156.54 389.22 157.62 390.58 97.52 437.44"/><polygon class="cls-36" points="169.51 431.12 92.78 425.56 92.78 423.68 169.51 417.52 169.68 419.4 104.42 424.62 169.68 429.41 169.51 431.12"/></g><path class="cls-38" d="M281.84,395.12c-46.39,0-84,38.65-84,86.36s37.58,86.37,84,86.37,84-38.65,84-86.37S328.22,395.12,281.84,395.12Zm0,160.67c-40,0-72.41-33.35-72.41-74.48s32.42-74.48,72.41-74.48,72.4,33.35,72.4,74.48S321.82,555.79,281.84,555.79Z" transform="translate(-191.3 -48.14)"/><path class="cls-39" d="M560.57,572.38c-48.79,0-88.53-40.87-88.53-91.07s39.74-91.07,88.53-91.07,88.54,40.88,88.54,91.07S609.37,572.38,560.57,572.38Zm0-174.44c-44.72,0-81.21,37.37-81.21,83.54,0,46,36.32,83.55,81.21,83.55,44.73,0,81.22-37.37,81.22-83.55C641.63,435.31,605.3,397.94,560.57,397.94Z" transform="translate(-191.3 -48.14)"/><path class="cls-40" d="M560.57,565.71c-45.22,0-81.88-37.88-81.88-84.23,0-46.51,36.83-84.22,81.88-84.22s81.89,37.88,81.89,84.22S605.71,565.71,560.57,565.71Zm0-166.06c-43.81,0-79.39,36.6-79.39,81.66S516.76,563,560.57,563,640,526.38,640,481.31C640,436.42,604.38,399.65,560.57,399.65Z" transform="translate(-191.3 -48.14)"/><path class="cls-39" d="M281.84,572.38c-48.89,0-88.54-40.79-88.54-91.07s39.74-91.07,88.54-91.07,88.53,40.88,88.53,91.07S330.63,572.38,281.84,572.38Zm0-174.44c-44.73,0-81.22,37.37-81.22,83.54,0,46,36.32,83.55,81.22,83.55,44.72,0,81.21-37.37,81.21-83.55S326.56,397.94,281.84,397.94Z" transform="translate(-191.3 -48.14)"/><path class="cls-40" d="M281.84,565.71c-45.23,0-81.89-37.88-81.89-84.23,0-46.51,36.83-84.22,81.89-84.22,45.22,0,81.88,37.88,81.88,84.22S327.06,565.71,281.84,565.71Zm0-166.06c-43.81,0-79.4,36.6-79.4,81.66S238,563,281.84,563s79.39-36.6,79.39-81.67C361.23,436.42,325.65,399.65,281.84,399.65Z" transform="translate(-191.3 -48.14)"/><path class="cls-41" d="M534.75,314.2l-.87-7.69c-3.63.51-6.74,1.09-9.2,1.59a28.52,28.52,0,0,0-9.14,3.25,6,6,0,0,0-2.9,3,7.93,7.93,0,0,0-.17,3.22,29,29,0,0,0,.55,3.85c.16.87.3,1.52.41,2,.49,2.29.7,3.45,1.14,5.2.55,2.19.15,1,2,10.59.53,2.84,1.32,6.94,2.34,11.95l7.48-1.54q-2.18-11.3-4.34-22.58L520.45,319a35.71,35.71,0,0,1,14.3-4.76Z" transform="translate(-191.3 -48.14)"/><polygon class="cls-41" points="192.07 386.57 185.86 388.17 159.11 278.09 165.32 276.49 192.07 386.57"/><polygon class="cls-42" points="203.33 424.92 194.21 427.26 160.31 287.55 169.42 285.21 203.33 424.92"/><path class="cls-43" d="M394.47,473.24l-4.27,1.09L356.09,334.67l4.47-1.14Q377.53,403.39,394.47,473.24Z" transform="translate(-191.3 -48.14)"/><path class="cls-44" d="M559.16,474.73c1.08,2.22,2.16,4.7.17,3.42-12.8-7-25.52-43.18-28.43-57.89-1.67-8.64-6.82-34.55-6.82-34.55l9.31-1.88s5,25.65,6.73,34.29C543,432.83,547.36,452.07,559.16,474.73Z" transform="translate(-191.3 -48.14)"/><path class="cls-45" d="M562.76,470.3c1.08,2.22,2.16,4.7.17,3.42-12.81-7-25.52-43.18-28.43-57.89-1.67-8.64-6.82-34.55-6.82-34.55L537,379.4s5,25.66,6.73,34.29C546.63,428.4,551,447.64,562.76,470.3Z" transform="translate(-191.3 -48.14)"/><path class="cls-41" d="M534.33,383.69l-9.06,1.78q-5.89-28.22-11.8-56.42l9.31-1.88Z" transform="translate(-191.3 -48.14)"/><path class="cls-46" d="M559.16,474.73c1.08,2.22,2.16,4.7.17,3.42-12.8-7-25.52-43.18-28.43-57.89-1.67-8.64-6.82-34.55-6.82-34.55l9.31-1.88s5,25.65,6.73,34.29C543,432.83,547.36,452.07,559.16,474.73Z" transform="translate(-191.3 -48.14)"/><polygon class="cls-47" points="339.79 321.52 330.39 323.4 322.17 280.9 331.48 279.02 339.79 321.52"/><path class="cls-48" d="M534.33,383.69l-9.06,1.78q-5.89-28.22-11.8-56.42l9.31-1.88Z" transform="translate(-191.3 -48.14)"/><path class="cls-47" d="M286.07,485.25l.92-6,104.08,6.5q-.78,5.3-1.57,10.6Z" transform="translate(-191.3 -48.14)"/><path class="cls-47" d="M519.51,361.43c5.48-.35,7.65,13.42,3.07,17.36s-130,115.26-130,115.26l-3.5-8.63C388.91,485.59,516.1,364.93,519.51,361.43Z" transform="translate(-191.3 -48.14)"/><path class="cls-49" d="M437.23,454.41l4.19-3.72,1.07-16-4.73,4.5-.15,7.43Z" transform="translate(-191.3 -48.14)"/><path class="cls-49" d="M446.69,446.06l4.21-3.77L452,425.76l-4.77,4.51c0,2.5,0,5.08-.11,7.72S446.86,443.45,446.69,446.06Z" transform="translate(-191.3 -48.14)"/><path class="cls-49" d="M456,437.73l4.17-3.69,1-17.11-4.73,4.55c0,2.55-.07,5.13-.14,7.76C456.28,432.12,456.18,435,456,437.73Z" transform="translate(-191.3 -48.14)"/><path class="cls-49" d="M465,429.83l4.23-3.8q.51-8.85,1-17.7l-4.77,4.55q0,4.11-.11,8.48C465.31,424.26,465.18,427.09,465,429.83Z" transform="translate(-191.3 -48.14)"/><path class="cls-49" d="M473.49,422.63l4.2-4.17,1.07-17.89-4.73,5-.15,8.33Z" transform="translate(-191.3 -48.14)"/><path class="cls-48" d="M390.16,488.5l2.24,5.64S517.93,382.89,522.33,379c2.41-2.23,2.91-7.36,2-11.46C505.38,384.6,424.57,457.54,390.16,488.5Z" transform="translate(-191.3 -48.14)"/><path class="cls-49" d="M482.28,414.44l4.2-4.17,1.07-17.88-4.73,5-.15,8.34Z" transform="translate(-191.3 -48.14)"/><path class="cls-49" d="M428.16,462.48l4-3.58,1-15.39-4.58,4.32q0,3.6-.14,7.38T428.16,462.48Z" transform="translate(-191.3 -48.14)"/><path class="cls-50" d="M337.35,319c-5.9,0-12.3,3-13.88,7.35s3.82,7.7,11,7.7c7.15-.17,22.2-7.7,33.59-7.87s17.79.77,17.79-3.42-5.9-4.1-12.31-4.1C367.2,318.47,337.35,319,337.35,319Z" transform="translate(-191.3 -48.14)"/><ellipse class="cls-50" cx="90.53" cy="433.34" rx="10.97" ry="11.29"/><ellipse class="cls-49" cx="90.53" cy="433.34" rx="8.06" ry="8.29"/><ellipse class="cls-7" cx="90.53" cy="433.34" rx="3.33" ry="3.42"/><rect class="cls-50" x="282.44" y="470.19" width="107.74" height="2.48" transform="translate(-195.09 -45.42) rotate(-0.46)"/><polygon class="cls-50" points="194.9 465.03 88.55 443.85 89.01 441.41 195.36 462.59 194.9 465.03"/><ellipse class="cls-51" cx="391.25" cy="492.55" rx="20.53" ry="21.12" transform="translate(-347.66 134.88) rotate(-22.06)"/><path class="cls-50" d="M399.83,513.71c-11.41,4.62-24.61-1.19-29.37-12.92s.68-25.1,12.09-29.72,24.61,1.19,29.36,12.92C416.65,495.91,411.31,509.05,399.83,513.71Zm-15.81-39c-9.55,3.88-14.09,15-10.1,24.86s15,14.68,24.56,10.81,14.09-15,10.11-24.86S393.5,470.87,384,474.71Z" transform="translate(-191.3 -48.14)"/><ellipse class="cls-50" cx="391.25" cy="492.55" rx="10.97" ry="11.29" transform="translate(-347.65 134.87) rotate(-22.06)"/><path class="cls-50" d="M395.72,503.56A11.89,11.89,0,1,1,402,488.21,11.7,11.7,0,0,1,395.72,503.56Zm-8.52-21A10.78,10.78,0,1,0,401,488.61,10.65,10.65,0,0,0,387.2,482.56Z" transform="translate(-191.3 -48.14)"/><path class="cls-50" d="M398.72,489.52a8.06,8.06,0,1,1-10.58-4.66A8.12,8.12,0,0,1,398.72,489.52Z" transform="translate(-191.3 -48.14)"/><polygon class="cls-50" points="170.12 415.37 173.69 411.86 198.62 438.23 195.04 441.74 170.12 415.37"/><polygon class="cls-50" points="228.91 477.78 234.9 476.19 209.62 449.89 206.5 453.93 228.91 477.78"/><path class="cls-50" d="M351.35,466.46a3.1,3.1,0,0,0,4.15,1.82l17.33-7a3.11,3.11,0,0,0,1.71-4.2h0a3.1,3.1,0,0,0-4.15-1.82l-17.34,7a3.2,3.2,0,0,0-1.7,4.2Z" transform="translate(-191.3 -48.14)"/><path class="cls-50" d="M411.17,528.21a3.35,3.35,0,0,0,3.63,3l18.72-2.06a3.22,3.22,0,0,0,2.83-3.63h0a3.34,3.34,0,0,0-3.62-3L414,524.57a3.22,3.22,0,0,0-2.84,3.64Z" transform="translate(-191.3 -48.14)"/><polygon class="cls-52" points="342.27 322.58 328.58 325.41 327.68 320.8 341.37 317.97 342.27 322.58"/><ellipse class="cls-50" cx="369.27" cy="433.34" rx="10.97" ry="11.29"/><ellipse class="cls-49" cx="369.27" cy="433.34" rx="8.06" ry="8.29"/><ellipse class="cls-50" cx="369.27" cy="433.34" rx="3.33" ry="3.42"/><path class="cls-47" d="M514.66,339.91c3.23-1.88,5.17,6,5.17,6s-96.63,61.93-99.18,63-8.07-4.37-4.9-6.38C418.92,400.66,511.46,341.85,514.66,339.91Z" transform="translate(-191.3 -48.14)"/><path class="cls-48" d="M417,408c1.24.95,2.69,1.59,3.69,1.12,2.49-1.16,99.18-63,99.18-63a21.07,21.07,0,0,0-1.58-4.17Z" transform="translate(-191.3 -48.14)"/><path class="cls-42" d="M287,479.58l-2.76-3.64,90.55-49.2c.25,1.4.51,2.81.76,4.22Z" transform="translate(-191.3 -48.14)"/><path class="cls-47" d="M420.24,401.65c.73.08,1.5,2.11,1.31,4A6.23,6.23,0,0,1,420,409q-11,.42-22.32.67-10.81.23-21.35.28c-.87-.31.8-7.54,2.14-7.57,8.07-.15,39-.59,40.23-.7,0,0,.37,0,.86-.06S420.16,401.64,420.24,401.65Z" transform="translate(-191.3 -48.14)"/><path class="cls-48" d="M376.31,407.42c-.07.36-.11.7-.18,1.37a2.06,2.06,0,0,0,0,.78,1.44,1.44,0,0,0,.16.45c9.25-.18,16.27-.26,21.07-.31,5.24,0,11.55,0,20.27-.58l2.43-.15a5.63,5.63,0,0,0,.53-.72,5.89,5.89,0,0,0,1-3.26l-45.07,1.48C376.41,406.86,376.35,407.18,376.31,407.42Z" transform="translate(-191.3 -48.14)"/><path class="cls-36" d="M541.37,375" transform="translate(-191.3 -48.14)"/></g><path class="cls-42" d="M583.52,298.41c.08-1.49.26-3.52-.37-4.41a4.35,4.35,0,0,0-3.57-1.75,5.71,5.71,0,0,0-3.55,2.36c-4.35,5.51-19.88,9.26-27.47,10.42-5.71.87-5.78.1-15.71,1.37-4.68.59-8.5,1.25-11,1.72a13.45,13.45,0,0,0,2,9.3,44.73,44.73,0,0,1,7.13-2.17c3-.63,6-.83,12.14-1.24,7-.46,6.15-.32,7.32-.42,4.77-.39,5.29-.69,6.89.05,4.57,2.09,7.7,7.59,7.76,13.1.06,5.93-3.43,12.34-8.09,13.6-3.7,1-6.93-1.58-9.47.64-.08.07-1.8,1.62-1.48,3.41a4.72,4.72,0,0,0,2.27,2.79,1.6,1.6,0,0,0,.75.38,47.21,47.21,0,0,0,8.57-.09c8.75-.44,15.54-9.52,15-20.87-.25-4.8-1.87-9.5-3-14.76l7.94-6.36c.64,5.14,1.19,9.49,1.72,13.84.56,4.53.93,9.11,1.74,13.58.28,1.58,1.59,2.88,2.84,5,.41-1.8.67-2.28.58-2.62-2.6-10.46-1.8-21.16-1.65-31.79C582.82,301.78,583.42,300.11,583.52,298.41Z" transform="translate(-191.3 -48.14)"/><path class="cls-53" d="M523.86,317.42c1-.43,2.34-.94,3.92-1.43,2.7-.85,4.85-1.18,5.58-1.37a26.2,26.2,0,0,1,7.3-.52c3.27,0,8.29-.1,16.16-.76a15.84,15.84,0,0,1,7.32,8,15.4,15.4,0,0,1-1.2,13.8c-.77,1.22-3.35,5.32-6.75,5.39-.3,0-1.77-.11-4.72-.33a5.91,5.91,0,0,0-3,.23c-1.13.49-2.34,1.64-2.15,2.26.49,1.56,10.3,2.45,16.31-2.41,7.9-6.4,7.55-21.41.88-27-3.53-3-8.85-3.32-12.12-3.54-1-.06-3.81.18-9.47.67-1.55.13-5.33.62-12.88,1.61-2.09.27-6.67.89-6.76,2.11,0,.33.29.55,1,1.93C523.53,316.59,523.73,317.1,523.86,317.42Z" transform="translate(-191.3 -48.14)"/><path id="MANO_DERCH" data-name="MANO DERCH" class="cls-2" d="M314,307.24a4.37,4.37,0,0,0-2.74,3.93s-1.58,12.15-1.51,13.81,3.3,9.62,3.3,9.62c.92,2.23,3,3.16,4.25,2.62a3,3,0,0,0,1.46-2c.84,2.21,2.91,3.2,4.33,2.67a3.29,3.29,0,0,0,1.72-2.2c1.32,1.71,3.16,2.46,4.57,2a2.81,2.81,0,0,0,1.36-1.12c.9-1.42.42-3.71-1.22-5.68a67.19,67.19,0,0,0,4.09,5.76c1.09,1.44,7.12-.24,5.3-2.63-1.39-4.65-3.7-11.62-3.73-11.79a6.14,6.14,0,0,1,5.8-2.83c2.35,0,2.89-.21,2.93-.44.08-.44-1.77-.82-3.57-2.58a10,10,0,0,1-1.55-2c-1-1.55-3.77-4.24-11.36-9.28C322.91,304.1,318.57,305.35,314,307.24Z" transform="translate(-191.3 -48.14)"/><ellipse class="cls-5" cx="203.27" cy="63.33" rx="5.5" ry="2.04"/><ellipse class="cls-54" cx="203.4" cy="62.77" rx="5.5" ry="2.04"/><path class="cls-55" d="M395,113.51c-2.9-.08-5.83-.85-5.86-1.66a1.57,1.57,0,0,1,.12-.6,2.14,2.14,0,0,1,.51-.76,4.55,4.55,0,0,1,.79-.61c.42-.3.64-.76.94-1.87a14.92,14.92,0,0,0,.68-3.45A15.94,15.94,0,0,0,392,101a33.23,33.23,0,0,1,0-10,55.08,55.08,0,0,0,.63,9.49,19.22,19.22,0,0,1,.36,4.3c-.11,3.26-1.06,4.66-1.52,5a5,5,0,0,0-.64.68c-.35.44-.58.74-.52,1s.57.48,1.47.68a21.77,21.77,0,0,0,3,.54,9.64,9.64,0,0,0,3.42-.22,13.62,13.62,0,0,1,1.78-.6c.06.1-.49.53-.91.8A6.83,6.83,0,0,1,395,113.51Z" transform="translate(-191.3 -48.14)"/><path class="cls-56" d="M338.9,319.47c-.11-.68-1.66-.4-3.16-1.64-1.77-1.47-1.68-3.6-2.59-3.61-.55,0-1.06.75-1.23,1.37-.29,1.15.57,2,1.16,3.46s.18,1.78.5,4.11a21.28,21.28,0,0,0,2.74,7.78c.72,1.26,1.14,1.53,1.94,2.81a17,17,0,0,0,.9,1.51c.19-.07-.7-3.38-2-6.93-1.42-3.92-2.19-5-1.57-6.25C336.45,320.38,339,320.27,338.9,319.47Z" transform="translate(-191.3 -48.14)"/><path class="cls-57" d="M328.82,330.13c-.44,0-.89.43-1.09.87-.63,1.4.91,3.65,2.53,4.17.2.07.58.19.8,0,.44-.36,0-1.61-.22-2.14a7.37,7.37,0,0,0-.72-1.4C329.53,330.65,329.23,330.16,328.82,330.13Z" transform="translate(-191.3 -48.14)"/><path class="cls-58" d="M324.73,335.44a3.64,3.64,0,0,0-.85-3.44c-.1-.08-.5-.44-.71-.32s-.18.27.06,1.61c.1.55.11.47.15.74.12,1-.12,1.23.05,1.92,0,.06.23,1,.55,1S324.61,336,324.73,335.44Z" transform="translate(-191.3 -48.14)"/><path class="cls-57" d="M318.61,334.44a15,15,0,0,0-.22-1.75c-.18-1.12-.24-1.29-.31-1.3s-.27.63-.33,1.06a6.91,6.91,0,0,0,0,1.66c.06,1.53-.54,2.57-.34,2.65s.3-.2.45-.38A3.59,3.59,0,0,0,318.61,334.44Z" transform="translate(-191.3 -48.14)"/><path class="cls-59" d="M569.32,311.87l-1.9-2.17c1.56-1.06,3.17-2.2,4.8-3.44,2.14-1.61,4.12-3.22,5.94-4.79a6.46,6.46,0,0,1-.59,4c-.64,1.16-1.49,1.67-3.71,3.18C572.84,309.36,571.26,310.46,569.32,311.87Z" transform="translate(-191.3 -48.14)"/><path class="cls-60" d="M527,297.39c-2.74,1.11-2.74,6,1.25,10.17,3.32,3.59-.34,11.12-5.16,5.05-8.06-10.18-8.81-14.28-6.4-17.36.42-.6.33-1.28-.17-2.22a2.28,2.28,0,0,1,3.16-1.37C523.52,294.39,527,297.39,527,297.39Z" transform="translate(-191.3 -48.14)"/><path class="cls-61" d="M333.32,252.51c-.69-.56-3.58,3.61-9.15,5.94-3.6,1.5-6.18,1.34-6.17,1.91,0,.21.38.4,9.29,1.3,2.23.22,3.9.37,4.6-.59.49-.67.13-1.35.09-2.8C331.9,254.83,333.82,252.93,333.32,252.51Z" transform="translate(-191.3 -48.14)"/><path class="cls-61" d="M490.13,229.44c-.11-.16-.79,0-3.35,1.46a25.24,25.24,0,0,1-7.06,1.58c-2.07.15-4.33,0-4.43.56,0,.25.44.58,1.39,1.23a8.84,8.84,0,0,0,1.35.84c1.23.51,2.29-.34,5.16-1.41,2.48-.92,2.59-.61,3.86-1.33C488.9,231.31,490.32,229.71,490.13,229.44Z" transform="translate(-191.3 -48.14)"/></svg>