<?xml version="1.0" encoding="utf-8"?>
<!-- Generator: Adobe Illustrator 22.0.0, SVG Export Plug-In . SVG Version: 6.00 Build 0)  -->
<svg version="1.1" id="Capa_1" xmlns="http://www.w3.org/2000/svg" xmlns:xlink="http://www.w3.org/1999/xlink" x="0px" y="0px"
	 viewBox="0 0 585.8 512" style="enable-background:new 0 0 585.8 512;" xml:space="preserve">
<style type="text/css">
	.st0{fill:none;stroke:#52BAB5;stroke-width:8;stroke-miterlimit:10;}
	.st1{fill:#0EA59A;}
	.st2{fill:#52BAB5;}
	.st3{fill:#B5D2D8;}
	.st4{fill:#E2ECF1;}
	.st5{fill:#FEF5F5;}
</style>
<title>icono</title>
<g id="Capa_1_1_">
	<path class="st0" d="M221.1,418.5c8.8,1.9,17.6,3.4,26.6,4.3c-8.8-1.2-17.5-2.6-26.1-4.2L221.1,418.5z"/>
	<path class="st0" d="M120.2,365.2c-13.1-10.4-53.3-44.9-67.1-105.1c-18.5-80.2,24.3-142.6,31.4-152.6"/>
	<path class="st0" d="M84.3,367.4C71.3,357,31,322.5,17.2,262.3C-1.3,182,41.5,119.6,48.6,109.7"/>
	<path class="st0" d="M466.1,367.4c13-10.4,53.1-44.8,66.9-105.1c18.4-80.2-24.3-142.6-31.3-152.5"/>
	<path class="st0" d="M501.8,371.8c13-10.4,53.1-44.9,66.9-105.1c18.4-80.2-24.2-142.6-31.3-152.6"/>
</g>
<g id="Capa_2_1_">
	<path class="st1" d="M445.3,62.1C405.6,22.3,351.7-0.1,295.4,0l-20,212.1l20,299.9l150-150C528.2,279.2,528.2,145,445.3,62.1z"/>
	<path class="st2" d="M145.4,62.1c-82.8,82.8-82.8,217.1,0,299.9l150,150V0C239.2-0.1,185.2,22.3,145.4,62.1z"/>
	<path class="st3" d="M295.4,81.9l-20,130.2l20,130.2c71.9-0.1,130.1-58.3,130.2-130.2C425.6,140.3,367.2,81.9,295.4,81.9z"/>
	<path class="st4" d="M165.2,212.1c0.1,71.9,58.3,130.1,130.2,130.2V81.9C223.6,81.9,165.2,140.3,165.2,212.1z"/>
	<path class="st4" d="M295.4,111.9l-20,100.2l20,100.2c55.4-0.6,99.8-45.9,99.2-101.2C394.1,156.5,350,112.4,295.4,111.9z"/>
	<path class="st5" d="M195.2,212.1c0.1,55.3,44.9,100.2,100.2,100.2V111.9C240.1,112,195.2,156.8,195.2,212.1z"/>
</g>
</svg>
